<svg width="20" height="23" viewBox="0 0 20 23" fill="none" xmlns="http://www.w3.org/2000/svg">
<path d="M13.1765 18.7908C12.4118 18.7908 11.7647 18.5203 11.2353 17.9791C10.7059 17.4379 10.4412 16.7865 10.4412 16.0248C10.4412 15.2431 10.7059 14.5817 11.2353 14.0405C11.7647 13.4993 12.4118 13.2288 13.1765 13.2288C13.9216 13.2288 14.5588 13.4993 15.0882 14.0405C15.6176 14.5817 15.8824 15.2431 15.8824 16.0248C15.8824 16.7865 15.6176 17.4379 15.0882 17.9791C14.5588 18.5203 13.9216 18.7908 13.1765 18.7908ZM2.11765 23C1.52941 23 1.02941 22.7895 0.617647 22.3686C0.205882 21.9477 0 21.4366 0 20.8353V4.72026C0 4.11895 0.205882 3.60784 0.617647 3.18693C1.02941 2.76601 1.52941 2.55556 2.11765 2.55556H3.76471V0.932026C3.76471 0.67146 3.84784 0.45098 4.01412 0.270588C4.18118 0.090196 4.39216 0 4.64706 0C4.92157 0 5.14196 0.090196 5.30824 0.270588C5.47529 0.45098 5.55882 0.67146 5.55882 0.932026V2.55556H14.4706V0.901961C14.4706 0.661438 14.5588 0.45098 14.7353 0.270588C14.9118 0.090196 15.1176 0 15.3529 0C15.6078 0 15.8184 0.090196 15.9847 0.270588C16.1518 0.45098 16.2353 0.661438 16.2353 0.901961V2.55556H17.8824C18.4706 2.55556 18.9706 2.76601 19.3824 3.18693C19.7941 3.60784 20 4.11895 20 4.72026V20.8353C20 21.4366 19.7941 21.9477 19.3824 22.3686C18.9706 22.7895 18.4706 23 17.8824 23H2.11765ZM2.11765 21.1961H17.8824C17.9804 21.1961 18.0639 21.1612 18.1329 21.0915C18.2012 21.0209 18.2353 20.9355 18.2353 20.8353V9.53072H1.76471V20.8353C1.76471 20.9355 1.79922 21.0209 1.86824 21.0915C1.93647 21.1612 2.01961 21.1961 2.11765 21.1961ZM1.76471 7.7268H18.2353V4.72026C18.2353 4.62004 18.2012 4.53506 18.1329 4.46531C18.0639 4.39475 17.9804 4.35948 17.8824 4.35948H2.11765C2.01961 4.35948 1.93647 4.39475 1.86824 4.46531C1.79922 4.53506 1.76471 4.62004 1.76471 4.72026V7.7268Z" fill="#1DA1F2"/>
</svg>
