<svg width="26" height="24" viewBox="0 0 26 24" fill="none" xmlns="http://www.w3.org/2000/svg">
<path d="M7.49003 21C6.90153 21 6.39792 20.8043 5.97919 20.413C5.55975 20.021 5.35003 19.55 5.35003 19V6C5.04686 6 4.79256 5.90433 4.58712 5.713C4.38239 5.521 4.28003 5.28333 4.28003 5C4.28003 4.71667 4.38239 4.479 4.58712 4.287C4.79256 4.09567 5.04686 4 5.35003 4H9.63003C9.63003 3.71667 9.73275 3.479 9.93819 3.287C10.1429 3.09567 10.3969 3 10.7 3H14.98C15.2832 3 15.5375 3.09567 15.7429 3.287C15.9477 3.479 16.05 3.71667 16.05 4H20.33C20.6332 4 20.8871 4.09567 21.0919 4.287C21.2973 4.479 21.4 4.71667 21.4 5C21.4 5.28333 21.2973 5.521 21.0919 5.713C20.8871 5.90433 20.6332 6 20.33 6V19C20.33 19.55 20.1207 20.021 19.7019 20.413C19.2825 20.8043 18.7785 21 18.19 21H7.49003ZM7.49003 6V19H18.19V6H7.49003ZM9.63003 16C9.63003 16.2833 9.73275 16.5207 9.93819 16.712C10.1429 16.904 10.3969 17 10.7 17C11.0032 17 11.2575 16.904 11.4629 16.712C11.6677 16.5207 11.77 16.2833 11.77 16V9C11.77 8.71667 11.6677 8.479 11.4629 8.287C11.2575 8.09567 11.0032 8 10.7 8C10.3969 8 10.1429 8.09567 9.93819 8.287C9.73275 8.479 9.63003 8.71667 9.63003 9V16ZM13.91 16C13.91 16.2833 14.0127 16.5207 14.2182 16.712C14.4229 16.904 14.6769 17 14.98 17C15.2832 17 15.5375 16.904 15.7429 16.712C15.9477 16.5207 16.05 16.2833 16.05 16V9C16.05 8.71667 15.9477 8.479 15.7429 8.287C15.5375 8.09567 15.2832 8 14.98 8C14.6769 8 14.4229 8.09567 14.2182 8.287C14.0127 8.479 13.91 8.71667 13.91 9V16ZM7.49003 6V19V6Z" fill="white"/>
</svg>
