<svg width="262" height="219" viewBox="0 0 262 219" fill="none" xmlns="http://www.w3.org/2000/svg">
<path d="M5.10375 121.359C5.10375 121.359 19.1712 101.444 0 86.0044C0 86.0044 24.6324 92.5235 36.6126 62.4443C36.6126 62.4443 48.121 77.9414 63.418 64.9604C63.418 64.9604 64.6475 80.2574 85.6772 80.5719C85.6772 80.5719 76.256 100.358 101.746 111.094C101.746 111.094 79.0294 114.883 82.0459 142.46C82.0459 142.46 56.0126 131.638 40.5584 152.267C40.5584 152.267 34.2966 140.602 18.9282 142.918C18.9139 142.918 21.4443 127.006 5.10375 121.359Z" fill="#E9E9E9"/>
<path d="M144.878 154.846C144.878 154.846 161.919 130.714 138.688 112C138.688 112 168.538 119.906 183.063 83.4363C183.063 83.4363 197.002 102.207 215.544 86.4813C215.544 86.4813 217.045 105.024 242.507 105.395C242.507 105.395 231.084 129.37 261.978 142.38C261.978 142.38 234.444 146.969 238.104 180.393C238.104 180.393 206.552 167.284 187.824 192.288C187.824 192.288 180.233 178.149 161.605 180.951C161.605 180.979 164.678 161.694 144.878 154.846Z" fill="#E9E9E9"/>
<path d="M124.691 39.7578C124.691 39.7578 134.183 26.3193 121.245 15.8974C121.245 15.8974 137.872 20.3006 145.949 0C145.949 0 153.712 10.4505 164.034 1.68695C164.034 1.68695 164.863 12.0088 179.045 12.2233C179.045 12.2233 172.683 25.5759 189.896 32.8241C189.896 32.8241 174.57 35.3831 176.6 53.9968C176.6 53.9968 159.03 46.6914 148.594 60.6159C148.594 60.6159 144.377 52.7387 133.997 54.3113C134.012 54.297 135.713 43.5605 124.691 39.7578Z" fill="#E9E9E9"/>
<path d="M92.7954 33.58C93.3672 33.4228 93.8104 33.0939 94.1106 32.565C94.4108 32.036 94.468 31.4785 94.3108 30.878C94.1535 30.2776 93.8104 29.8201 93.2957 29.5199C92.7811 29.2054 92.2378 29.1339 91.666 29.2911C91.0655 29.4484 90.608 29.7915 90.3078 30.3205C90.0076 30.8494 89.9218 31.407 90.0791 32.0074C90.2363 32.6079 90.5794 33.0653 91.1084 33.3656C91.6231 33.6658 92.1949 33.7373 92.7954 33.58ZM84.5464 9.71963L89.4929 26.9466L92.1234 26.2461L87.949 8.81897L84.5464 9.71963Z" fill="#E9E9E9"/>
<path d="M31.8511 169.926C32.1227 169.325 32.1513 168.711 31.9082 168.096C31.6652 167.481 31.2363 167.024 30.6216 166.724C29.9926 166.438 29.3778 166.395 28.7488 166.623C28.1198 166.838 27.6623 167.252 27.3906 167.853C27.1047 168.482 27.0761 169.111 27.3049 169.74C27.5336 170.369 27.9625 170.841 28.5915 171.127C29.2206 171.413 29.8496 171.441 30.4786 171.213C31.0934 170.984 31.5508 170.555 31.8511 169.926ZM5.66041 160.076L23.8309 168.039L25.1032 165.308L7.29017 156.545L5.66041 160.076Z" fill="#E9E9E9"/>
<path d="M193.656 68.8599C194.271 69.346 194.957 69.5318 195.729 69.4318C196.501 69.3317 197.144 68.96 197.63 68.331C198.131 67.7019 198.345 66.9871 198.259 66.2151C198.174 65.4431 197.83 64.8141 197.23 64.328C196.601 63.8277 195.886 63.6275 195.1 63.7133C194.314 63.7991 193.67 64.1708 193.17 64.7998C192.67 65.4288 192.469 66.1436 192.555 66.9299C192.655 67.7162 193.013 68.3596 193.656 68.8599ZM211.984 41.6399L197.959 60.225L200.733 62.4123L215.558 44.4563L211.984 41.6399Z" fill="#E9E9E9"/>
<path d="M50.0553 180.79C50.0553 180.79 48.0109 190.811 47.1674 202.148H73.9442L75.045 190.011C75.045 189.996 69.5553 180.704 50.0553 180.79Z" fill="#FFC89F"/>
<path d="M189.701 162.511C189.543 162.669 179.507 172.633 178.921 202.141H74.9021C74.9021 202.141 75.6598 195.807 72.6719 191.962C72.6719 191.962 58.0183 190.418 49.6693 180.325C49.6693 180.325 48.4398 152.275 63.7796 136.893C65.4952 135.163 67.8112 134.162 70.2558 134.105C70.2558 134.105 74.316 132.103 80.3918 129.602C86.4677 127.114 94.5451 124.126 102.58 122.182C102.58 122.182 105.639 114.004 112.401 121.567C126.855 137.765 144.796 109.716 151.716 120.423C154.775 123.454 159.979 116.335 162.538 121.124C162.538 121.124 168.142 120.481 169.672 122.082C169.672 122.082 176.52 120.881 181.08 123.397C181.08 123.397 193.446 122.368 202.453 126.099C202.467 126.128 220.981 164.184 189.701 162.511Z" fill="#1DA1F2"/>
<path d="M145.679 119.861V102.763H110.653V119.032C110.653 120.59 109.381 121.834 107.822 121.805L107.351 121.791C107.351 121.791 103.233 132.742 108.68 144.994C108.68 144.994 117.73 150.441 122.862 160.791C122.862 160.791 132.126 149.297 138.416 146.452C138.416 146.452 148.023 137.832 148.409 122.635C146.894 122.606 145.679 121.377 145.679 119.861Z" fill="#FFC89F"/>
<path d="M128.166 127.256C115.285 127.256 104.835 116.805 104.835 103.925V75.4322C104.835 62.5513 115.285 52.1008 128.166 52.1008C141.047 52.1008 151.498 62.5513 151.498 75.4322V103.925C151.498 116.82 141.061 127.256 128.166 127.256Z" fill="#FFC89F"/>
<path d="M128.167 127.26C126.151 127.432 124.107 127.26 122.12 126.803C121.619 126.689 121.133 126.546 120.647 126.403C120.161 126.26 119.689 126.06 119.203 125.902C118.96 125.831 118.731 125.702 118.503 125.602L117.802 125.288C117.345 125.073 116.902 124.816 116.444 124.587C116.001 124.33 115.572 124.044 115.143 123.772C114.714 123.486 114.314 123.172 113.899 122.871C113.499 122.557 113.113 122.214 112.727 121.885C112.341 121.542 111.984 121.17 111.626 120.827C110.211 119.355 109.01 117.682 108.138 115.866C109.325 117.496 110.626 119.011 112.084 120.355C112.455 120.684 112.827 121.013 113.199 121.327C113.585 121.628 113.971 121.942 114.371 122.242C114.786 122.514 115.172 122.814 115.586 123.086C116.015 123.343 116.415 123.615 116.859 123.858C117.288 124.087 117.716 124.344 118.16 124.558C118.603 124.759 119.046 124.987 119.503 125.173C119.961 125.359 120.418 125.559 120.876 125.716L121.576 125.945C121.805 126.017 122.048 126.117 122.277 126.174C124.193 126.746 126.166 127.089 128.167 127.26Z" fill="#FA996E"/>
<path d="M149.011 114.412C148.696 115.441 148.224 116.414 147.667 117.329C147.524 117.557 147.381 117.786 147.238 118L146.766 118.658C146.609 118.873 146.437 119.073 146.266 119.287L145.737 119.902C145.008 120.702 144.207 121.432 143.349 122.061C142.492 122.704 141.562 123.261 140.576 123.676C141.376 122.961 142.163 122.275 142.935 121.56C143.692 120.845 144.422 120.102 145.122 119.33L145.651 118.758C145.823 118.558 145.98 118.358 146.151 118.158L146.652 117.557C146.809 117.343 146.981 117.143 147.138 116.943C147.767 116.142 148.382 115.284 149.011 114.412Z" fill="#FA996E"/>
<path d="M104.036 103.004H105.252C107.653 103.004 109.598 101.06 109.598 98.6581V90.9096C109.598 88.5078 107.653 86.5636 105.252 86.5636H104.036C101.635 86.5636 99.6904 88.5078 99.6904 90.9096V98.6581C99.6904 101.06 101.635 103.004 104.036 103.004Z" fill="#FFC89F"/>
<path d="M151.102 103.004H152.317C154.719 103.004 156.663 101.06 156.663 98.6581V90.9096C156.663 88.5078 154.719 86.5636 152.317 86.5636H151.102C148.7 86.5636 146.756 88.5078 146.756 90.9096V98.6581C146.77 101.06 148.715 103.004 151.102 103.004Z" fill="#FFC89F"/>
<path d="M103.694 91.1625C103.222 91.3197 102.908 91.6771 102.722 92.0631C102.522 92.4491 102.407 92.8923 102.336 93.3355C102.221 94.2219 102.279 95.1368 102.522 95.9803C102.65 96.3949 102.836 96.7952 103.079 97.1097C103.194 97.267 103.365 97.4242 103.465 97.4814C103.494 97.4957 103.494 97.4957 103.494 97.4957L103.48 97.51C103.494 97.5243 103.537 97.4671 103.58 97.3813C103.665 97.2241 103.708 96.9953 103.751 96.7809C103.794 96.5522 103.823 96.3234 103.851 96.0947C103.908 95.6229 103.923 95.1511 103.966 94.665C104.109 95.1368 104.194 95.6086 104.252 96.0947C104.28 96.3377 104.294 96.5807 104.294 96.8381C104.294 97.0954 104.266 97.3527 104.18 97.6387C104.123 97.7816 104.066 97.9389 103.866 98.0961C103.765 98.1676 103.637 98.2105 103.522 98.2248C103.394 98.2391 103.294 98.2105 103.208 98.1819C102.865 98.039 102.679 97.8531 102.493 97.653C102.121 97.2527 101.878 96.7523 101.721 96.2662C101.421 95.2655 101.407 94.2219 101.678 93.2354C101.821 92.7494 102.036 92.2633 102.364 91.863C102.536 91.6628 102.736 91.4913 102.965 91.3626C103.194 91.2197 103.437 91.1482 103.694 91.1625Z" fill="#FA996E"/>
<path d="M104.538 93.2243C104.409 92.924 104.352 92.6381 104.309 92.3665C104.266 92.0949 104.223 91.8375 104.195 91.6088C104.166 91.3658 104.123 91.1513 104.066 90.9941C104.037 90.9083 103.994 90.8368 103.909 90.7653C103.823 90.6938 103.694 90.6366 103.537 90.5795C103.651 90.4651 103.809 90.3793 103.994 90.365C104.18 90.3507 104.395 90.4222 104.552 90.5509C104.866 90.8225 104.981 91.1799 105.024 91.4944C105.067 91.8089 105.038 92.1235 104.967 92.4094C104.881 92.6953 104.752 92.9669 104.538 93.2243Z" fill="#FA996E"/>
<path d="M152.845 91.1628C153.088 91.1485 153.345 91.2057 153.574 91.3344C153.803 91.4487 154.003 91.6346 154.175 91.8347C154.503 92.235 154.718 92.7211 154.861 93.2072C155.132 94.1936 155.118 95.2372 154.818 96.238C154.661 96.7383 154.418 97.2244 154.046 97.6247C153.846 97.8249 153.674 98.0107 153.331 98.1537C153.245 98.1823 153.131 98.2109 153.017 98.1966C152.888 98.1966 152.759 98.1394 152.673 98.0679C152.488 97.9249 152.416 97.7534 152.359 97.6104C152.259 97.3245 152.245 97.0672 152.245 96.8098C152.245 96.5525 152.259 96.3095 152.287 96.0664C152.345 95.5804 152.43 95.1086 152.573 94.6368C152.602 95.1229 152.631 95.5947 152.688 96.0664C152.716 96.2952 152.745 96.5382 152.788 96.7526C152.831 96.9671 152.888 97.1958 152.959 97.3531C153.002 97.4246 153.059 97.4817 153.059 97.4817L153.045 97.4675C153.045 97.4675 153.059 97.4674 153.074 97.4532C153.174 97.4103 153.345 97.2387 153.46 97.0815C153.717 96.7669 153.889 96.3666 154.017 95.9521C154.26 95.1086 154.318 94.1936 154.203 93.3073C154.132 92.8641 154.032 92.4209 153.817 92.0349C153.631 91.6775 153.317 91.3344 152.845 91.1628Z" fill="#FA996E"/>
<path d="M152 93.2243C151.786 92.9812 151.657 92.6953 151.571 92.4094C151.5 92.1235 151.471 91.8089 151.514 91.4944C151.557 91.1799 151.671 90.8225 151.986 90.5509C152.143 90.4222 152.358 90.3507 152.544 90.365C152.729 90.3936 152.887 90.4651 153.001 90.5795C152.844 90.6366 152.715 90.6938 152.629 90.7653C152.544 90.8368 152.501 90.9083 152.472 90.9941C152.415 91.1513 152.372 91.3658 152.343 91.6088C152.315 91.8518 152.272 92.1092 152.229 92.3665C152.186 92.6381 152.115 92.9097 152 93.2243Z" fill="#FA996E"/>
<path d="M140.68 90.2819C141.84 90.2819 142.781 89.341 142.781 88.1804C142.781 87.0197 141.84 86.0788 140.68 86.0788C139.519 86.0788 138.578 87.0197 138.578 88.1804C138.578 89.341 139.519 90.2819 140.68 90.2819Z" fill="#1B1B2F"/>
<path d="M145.01 84.8469C144.338 84.4323 143.637 84.1035 142.922 83.8747C142.193 83.6603 141.45 83.5316 140.707 83.5602C140.521 83.5459 140.335 83.5888 140.149 83.5888L139.863 83.6174C139.763 83.6317 139.677 83.6603 139.591 83.6746L139.034 83.7746C138.848 83.8318 138.676 83.889 138.491 83.9319L138.219 84.0177L137.947 84.1321L137.404 84.3465C137.047 84.5038 136.718 84.6896 136.346 84.8469C136.646 84.5895 136.947 84.3322 137.275 84.1035L137.79 83.8032L138.047 83.6603L138.319 83.5459C138.505 83.4744 138.691 83.3886 138.877 83.3172C139.077 83.26 139.263 83.2171 139.463 83.1599C139.563 83.1313 139.663 83.1027 139.763 83.0884L140.063 83.0598C140.263 83.0455 140.463 83.0027 140.678 83.0169C141.493 83.0027 142.308 83.1742 143.051 83.4887C143.809 83.7889 144.481 84.2464 145.01 84.8469Z" fill="#1B1B2F"/>
<path d="M118.632 90.2819C119.793 90.2819 120.734 89.341 120.734 88.1804C120.734 87.0197 119.793 86.0788 118.632 86.0788C117.472 86.0788 116.531 87.0197 116.531 88.1804C116.531 89.341 117.472 90.2819 118.632 90.2819Z" fill="#1B1B2F"/>
<path d="M122.966 84.8469C122.294 84.4323 121.594 84.1035 120.879 83.8747C120.15 83.6603 119.406 83.5316 118.663 83.5602C118.477 83.5459 118.291 83.5888 118.105 83.5888L117.82 83.6174C117.719 83.6317 117.634 83.6603 117.548 83.6746L116.99 83.7746C116.805 83.8318 116.633 83.889 116.447 83.9319L116.175 84.0177L115.904 84.1321L115.361 84.3465C115.003 84.5038 114.674 84.6896 114.303 84.8469C114.603 84.5895 114.903 84.3322 115.232 84.1035L115.747 83.8032L116.004 83.6603L116.276 83.5459C116.461 83.4744 116.647 83.3886 116.833 83.3172C117.033 83.26 117.219 83.2171 117.419 83.1599C117.519 83.1313 117.619 83.1027 117.719 83.0884L118.02 83.0598C118.22 83.0455 118.42 83.0027 118.634 83.0169C119.449 83.0027 120.264 83.1742 121.008 83.4887C121.765 83.7889 122.452 84.2464 122.966 84.8469Z" fill="#1B1B2F"/>
<path d="M132.16 92.9745C132.403 93.8609 132.588 94.7472 132.76 95.6479C132.932 96.5343 133.074 97.4349 133.203 98.3356C133.26 98.7788 133.346 99.2648 133.289 99.7509C133.246 100.237 133.117 100.709 132.889 101.138C132.674 101.567 132.331 101.967 131.902 102.196C131.488 102.396 131.087 102.596 130.658 102.767C131.016 102.481 131.388 102.224 131.759 101.953C132.102 101.709 132.331 101.338 132.503 100.952C132.66 100.551 132.746 100.137 132.76 99.708C132.789 99.2791 132.717 98.8645 132.646 98.4071C132.531 97.5064 132.403 96.6057 132.331 95.7051C132.231 94.8044 132.174 93.8895 132.16 92.9745Z" fill="#1B1B2F"/>
<path d="M145.012 80.281C144.04 80.2238 143.311 80.1666 142.61 80.138C141.924 80.1094 141.324 80.0951 140.709 80.1094C140.638 80.1094 140.552 80.1094 140.48 80.1094L140.252 80.1237C140.18 80.1237 140.094 80.1237 140.023 80.1237C139.951 80.1237 139.866 80.138 139.794 80.138C139.637 80.1523 139.48 80.1523 139.308 80.1523C139.151 80.1666 138.979 80.1809 138.793 80.1952C138.708 80.1952 138.622 80.1952 138.522 80.1952C138.436 80.2095 138.35 80.2238 138.25 80.2238C138.064 80.2381 137.878 80.2524 137.664 80.2524C137.264 80.281 136.849 80.3096 136.334 80.2667C136.406 80.0379 136.506 79.8235 136.62 79.6234C136.735 79.4232 136.849 79.2231 136.992 79.0372C137.135 78.8657 137.292 78.7084 137.464 78.5511C137.55 78.4654 137.635 78.3939 137.721 78.3224C137.807 78.2509 137.907 78.1937 138.007 78.1223C138.193 77.9936 138.407 77.8792 138.608 77.7649C138.822 77.6791 139.036 77.5933 139.265 77.5218C139.38 77.4789 139.494 77.4503 139.608 77.4217L139.966 77.3646C140.209 77.336 140.437 77.2931 140.681 77.2931C141.638 77.2645 142.596 77.5504 143.382 78.0508C143.483 78.108 143.568 78.1937 143.668 78.2509C143.754 78.3224 143.854 78.3939 143.94 78.4654C144.112 78.6226 144.269 78.7942 144.412 78.98C144.669 79.3803 144.912 79.7949 145.012 80.281Z" fill="#1B1B2F"/>
<path d="M122.965 80.281C121.993 80.2238 121.264 80.1666 120.563 80.138C119.877 80.1094 119.276 80.0951 118.662 80.1094C118.59 80.1094 118.504 80.1094 118.433 80.1094L118.204 80.1237C118.133 80.1237 118.047 80.1237 117.975 80.1237C117.904 80.1237 117.818 80.138 117.747 80.138C117.589 80.1523 117.432 80.1523 117.261 80.1523C117.103 80.1666 116.932 80.1809 116.746 80.1952C116.66 80.1952 116.574 80.1952 116.474 80.1952C116.389 80.2095 116.303 80.2238 116.203 80.2238C116.017 80.2381 115.831 80.2524 115.617 80.2524C115.216 80.281 114.802 80.3096 114.287 80.2667C114.359 80.0379 114.459 79.8235 114.573 79.6234C114.687 79.4232 114.802 79.2231 114.945 79.0372C115.088 78.8657 115.245 78.7084 115.416 78.5511C115.502 78.4654 115.588 78.3939 115.674 78.3224C115.76 78.2509 115.86 78.1937 115.96 78.1223C116.146 77.9936 116.36 77.8792 116.56 77.7649C116.775 77.6791 116.989 77.5933 117.218 77.5218C117.332 77.4789 117.446 77.4503 117.561 77.4217L117.918 77.3646C118.161 77.336 118.39 77.2931 118.633 77.2931C119.591 77.2645 120.549 77.5504 121.335 78.0508C121.435 78.108 121.521 78.1937 121.621 78.2509C121.707 78.3224 121.807 78.3939 121.893 78.4654C122.064 78.6226 122.221 78.7942 122.364 78.98C122.636 79.3803 122.865 79.7949 122.965 80.281Z" fill="#1B1B2F"/>
<path d="M107.739 75.0748L108.668 74.5887L107.739 80.2643L104.936 83.1092C104.936 83.1092 105.408 94.2031 105.251 94.2031C105.094 94.2031 101.362 83.5953 101.362 74.9032C101.362 74.9032 98.5747 77.4336 102.206 81.4795C102.206 81.4795 97.1307 80.7361 99.5325 76.3614C100.39 74.7888 101.177 73.1734 101.777 71.4864C101.806 71.4292 101.82 71.3577 101.848 71.3006L100.505 73.1305C100.505 73.1305 99.5182 71.3006 101.605 68.1554C101.605 68.1554 97.0021 71.6151 96.9449 76.533C96.9449 76.533 95.1722 70.8002 100.805 66.8401C100.805 66.8401 100.162 63.4376 103.678 58.2052C103.678 58.2052 101.091 59.978 100.29 62.6228C100.29 62.6228 98.6318 56.3038 108.696 54.0307C108.696 54.0307 110.441 49.0414 117.088 51.5003C117.088 51.5003 114.829 43.7661 124.165 42.5938C124.165 42.5938 117.188 44.5666 118.475 50.7855C118.475 50.7855 121.463 40.5494 131.284 44.3522C131.284 44.3522 134.344 43.7661 135.916 47.2686C135.916 47.2686 141.177 49.9706 144.394 47.2686C144.394 47.2686 143.179 50.6282 139.548 48.9556C139.548 48.9556 141.678 50.4138 144.394 50.1279C147.096 49.842 148.24 52.6869 148.24 52.6869C148.24 52.6869 154.916 52.0436 154.702 60.0209C154.702 60.0209 163.751 65.2104 161.092 72.3728C161.092 72.3728 161.464 66.1396 154.073 62.7085C154.073 62.7085 162.393 71.658 158.676 76.0755C158.676 76.0755 159.434 73.2591 156.46 70.3427L154.773 75.7753C154.773 75.7753 157.747 80.3787 156.288 82.3515C156.288 82.3515 155.702 77.7482 154.544 76.1327C154.544 76.1327 155.345 85.6254 151.27 90.8149L151.471 83.4523L148.912 79.478L148.254 71.372C148.254 71.372 142.535 67.7265 142.736 67.7265C142.936 67.7265 144.38 67.1832 144.38 67.1832C144.38 67.1832 141.749 61.9937 134.258 64.5528L134.458 63.6807L131.57 64.9673L132.156 63.2089L129.726 64.9673L127.296 64.1525L127.825 65.096L123.021 63.8093L123.607 64.5528C123.607 64.5528 114.672 64.953 108.882 71.0289L110.398 70.5572L107.739 75.0748Z" fill="#1B1B2F"/>
<path d="M116.888 48.6685C116.859 49.3691 116.959 50.041 117.102 50.7129C117.16 51.056 117.274 51.3705 117.36 51.6993C117.46 52.0282 117.588 52.3427 117.689 52.6715C118.189 53.9438 118.861 55.1447 119.633 56.2598C120.376 57.4035 121.277 58.4472 122.178 59.4908L123.607 60.9919C124.108 61.4637 124.608 61.9497 125.094 62.4501C124.522 62.0498 123.979 61.6209 123.421 61.2063C122.892 60.7488 122.378 60.2914 121.863 59.8053C121.62 59.548 121.377 59.3049 121.134 59.0476C120.891 58.7903 120.648 58.5472 120.433 58.2613L119.776 57.4464C119.547 57.1748 119.375 56.8746 119.161 56.5886C118.375 55.4307 117.703 54.1726 117.274 52.8287C117.174 52.4856 117.074 52.1568 117.002 51.8137C116.945 51.4706 116.859 51.1275 116.831 50.7701C116.759 50.0696 116.731 49.3548 116.888 48.6685Z" fill="#1F4068"/>
<path d="M121.509 47.8398C121.294 48.4117 121.18 48.9978 121.108 49.5839C121.022 50.1701 121.023 50.7705 121.051 51.3567C121.108 52.529 121.351 53.7013 121.709 54.8164C121.809 55.1023 121.88 55.3739 121.995 55.6598L122.338 56.4747C122.395 56.6177 122.438 56.7463 122.509 56.8893L122.709 57.2896C122.838 57.5612 122.967 57.8186 123.095 58.0902L123.968 59.6485C124.296 60.1488 124.611 60.6635 124.925 61.1782C124.525 60.735 124.139 60.2632 123.739 59.7914C123.396 59.2911 123.038 58.805 122.709 58.2903C122.095 57.2467 121.523 56.1459 121.18 54.9736C120.822 53.8013 120.594 52.5719 120.622 51.3424C120.651 50.7276 120.708 50.1129 120.851 49.5125C120.994 48.9406 121.194 48.3545 121.509 47.8398Z" fill="#1F4068"/>
<path d="M131.558 61.8182C132.201 61.0319 132.801 60.217 133.373 59.3878C133.931 58.5586 134.431 57.6865 134.874 56.8002L135.189 56.1283C135.289 55.8995 135.36 55.6708 135.46 55.442C135.503 55.3277 135.56 55.2133 135.603 55.0989L135.718 54.7415L135.832 54.3841C135.875 54.2698 135.918 54.1411 135.932 54.0267C136.189 53.0689 136.29 52.0681 136.318 51.0531C136.504 52.0538 136.533 53.0975 136.347 54.1268C136.161 55.1418 135.832 56.1426 135.389 57.0718C134.931 58.0011 134.374 58.8731 133.731 59.6737C133.087 60.4457 132.372 61.1891 131.558 61.8182Z" fill="#1F4068"/>
<path d="M129.095 61.6135C128.88 61.1132 128.751 60.5985 128.651 60.0695C128.566 59.5406 128.508 59.0116 128.508 58.4684C128.508 57.9251 128.566 57.3961 128.666 56.8672C128.766 56.3382 128.937 55.8236 129.18 55.3375C129.166 55.8808 129.123 56.3954 129.109 56.9101C129.095 57.4247 129.08 57.9394 129.08 58.4684L129.095 60.0267C129.109 60.5556 129.109 61.0846 129.095 61.6135Z" fill="#1F4068"/>
<path d="M133.731 60.5341C134.689 59.3904 135.775 58.3754 136.905 57.4175C138.048 56.4597 139.264 55.5876 140.55 54.8299C141.837 54.0865 143.209 53.4289 144.653 53.0286C146.097 52.614 147.641 52.4567 149.099 52.7284C147.613 52.6855 146.169 52.9571 144.782 53.4432C144.096 53.6862 143.41 53.9578 142.766 54.2866C142.109 54.6012 141.465 54.9443 140.836 55.316C139.564 56.0451 138.363 56.8886 137.176 57.7606C136.004 58.6327 134.846 59.562 133.731 60.5341Z" fill="#1F4068"/>
<path d="M141.377 58.334C142.55 57.7335 143.865 57.4619 145.18 57.3618C146.495 57.2617 147.825 57.3618 149.126 57.6048C150.427 57.8622 151.699 58.2625 152.886 58.8343C154.072 59.4062 155.187 60.1353 156.131 61.0502C155.044 60.3211 153.901 59.7207 152.7 59.2346C151.513 58.7628 150.269 58.3911 149.011 58.1624C147.753 57.9194 146.467 57.805 145.18 57.805C143.922 57.805 142.635 57.948 141.377 58.334Z" fill="#1F4068"/>
<path d="M158.105 72.6591C157.576 71.9586 157.019 71.2867 156.432 70.6577C155.846 70.0286 155.246 69.4139 154.588 68.8421C153.945 68.2702 153.273 67.727 152.573 67.2266C151.872 66.7119 151.129 66.2687 150.399 65.7827C151.243 66.0543 152.058 66.3974 152.816 66.8549C153.202 67.0693 153.559 67.3267 153.931 67.584C154.117 67.7127 154.274 67.8556 154.46 67.9986C154.631 68.1415 154.803 68.2702 154.974 68.4275C155.632 69.0136 156.247 69.6712 156.776 70.3861C157.305 71.0723 157.776 71.83 158.105 72.6591Z" fill="#1F4068"/>
<path d="M105.566 55.0163C106.195 54.5874 106.924 54.2872 107.667 54.087C107.853 54.0441 108.039 53.987 108.225 53.9441L108.797 53.844C109.183 53.8011 109.569 53.7582 109.955 53.7582C110.155 53.7582 110.341 53.7582 110.541 53.7725C110.741 53.7868 110.927 53.8011 111.127 53.8154C111.513 53.8869 111.899 53.9298 112.256 54.0584C113 54.2443 113.715 54.5874 114.344 55.002C113.6 54.8018 112.885 54.5874 112.156 54.4873C111.427 54.3587 110.698 54.3015 109.955 54.3158C109.226 54.3158 108.482 54.3729 107.753 54.5016C107.024 54.6303 106.295 54.7875 105.566 55.0163Z" fill="#1F4068"/>
<path d="M122.649 63.3754C121.534 62.8465 120.39 62.389 119.246 61.9887C118.675 61.7886 118.088 61.6027 117.502 61.4597C116.916 61.3025 116.33 61.1738 115.729 61.1023C115.129 61.0166 114.529 60.9737 113.942 60.988C113.342 60.988 112.756 61.088 112.184 61.2453C111.612 61.4169 111.069 61.6456 110.569 61.9887C110.068 62.3318 109.639 62.7464 109.225 63.2182C109.525 62.6749 109.925 62.1889 110.397 61.76C110.883 61.3454 111.455 61.0309 112.055 60.8164C113.271 60.3732 114.571 60.3732 115.815 60.5305C117.059 60.7163 118.274 61.0737 119.418 61.5598C120.547 62.0745 121.648 62.6606 122.649 63.3754Z" fill="#1F4068"/>
<path d="M123.537 64.5797C122.536 64.4796 121.55 64.4224 120.549 64.4081C119.548 64.3795 118.562 64.3938 117.575 64.4367C116.589 64.4939 115.602 64.5654 114.616 64.7084C113.63 64.837 112.657 65.0086 111.7 65.2516C110.742 65.4803 109.798 65.7663 108.883 66.1237C107.968 66.4811 107.082 66.91 106.224 67.4103C105.381 67.9107 104.58 68.4968 103.837 69.1545C103.093 69.8121 102.45 70.5698 101.821 71.3561C102.336 70.4983 102.95 69.6977 103.636 68.9686C104.351 68.2538 105.123 67.6105 105.981 67.0529C106.839 66.5097 107.739 66.0522 108.669 65.6519C109.612 65.2802 110.57 64.98 111.557 64.7226C113.529 64.2509 115.545 64.0364 117.547 64.0221C119.577 63.9793 121.578 64.1508 123.537 64.5797Z" fill="#1F4068"/>
<path d="M99.0024 68.4167C99.417 67.8306 99.9459 67.3302 100.518 66.887C101.09 66.4439 101.719 66.0722 102.376 65.7719C102.705 65.6147 103.048 65.5003 103.391 65.3859C103.749 65.3002 104.092 65.1715 104.449 65.1286C105.164 64.9856 105.893 64.9713 106.608 65.0428C105.907 65.2001 105.221 65.3288 104.549 65.5575C103.877 65.7576 103.234 66.0007 102.605 66.2866C101.976 66.5582 101.361 66.887 100.761 67.2444C100.16 67.6161 99.5742 68.0021 99.0024 68.4167Z" fill="#1F4068"/>
<path d="M146.795 70.5049C147.496 70.7622 148.153 71.091 148.797 71.4341C149.44 71.7915 150.055 72.1775 150.67 72.5921C151.27 73.0067 151.87 73.4499 152.428 73.9217C153 74.3935 153.529 74.8938 154.029 75.4371C153.386 75.0797 152.771 74.6794 152.171 74.2791C151.556 73.8788 150.955 73.4785 150.355 73.0639C149.755 72.6493 149.154 72.249 148.568 71.8201C147.968 71.3913 147.381 70.9624 146.795 70.5049Z" fill="#1F4068"/>
<path d="M100.664 75.9466C100.75 75.4462 101.021 74.9888 101.307 74.5742C101.607 74.1596 101.965 73.8022 102.351 73.4734C102.737 73.1445 103.151 72.8729 103.594 72.6156C103.809 72.4869 104.038 72.3868 104.266 72.2868C104.495 72.201 104.738 72.1009 104.981 72.0294C104.795 72.201 104.61 72.3583 104.409 72.5155C104.224 72.6728 104.023 72.83 103.838 72.973C103.466 73.2875 103.08 73.5734 102.722 73.888C102.351 74.2025 101.993 74.517 101.65 74.8458C101.293 75.2032 100.964 75.5463 100.664 75.9466Z" fill="#1F4068"/>
<path d="M103.592 81.0356C103.892 80.378 104.249 79.7489 104.621 79.1199C104.993 78.4909 105.379 77.8904 105.779 77.29C106.194 76.6896 106.608 76.1034 107.037 75.5316C107.48 74.9597 107.923 74.3879 108.424 73.8589C108.109 74.5308 107.766 75.1599 107.394 75.7746C107.023 76.4036 106.637 77.0041 106.236 77.6045C105.822 78.205 105.422 78.7911 104.978 79.363C104.55 79.9348 104.092 80.4924 103.592 81.0356Z" fill="#1F4068"/>
<path d="M129.098 112.563C131.427 112.563 133.316 111.097 133.316 109.289C133.316 107.481 131.427 106.015 129.098 106.015C126.769 106.015 124.881 107.481 124.881 109.289C124.881 111.097 126.769 112.563 129.098 112.563Z" fill="#FA996E"/>
<path d="M132.428 111.3C132.1 111.787 131.614 112.158 131.07 112.416C130.527 112.673 129.941 112.816 129.34 112.83C128.74 112.859 128.14 112.773 127.582 112.559C127.024 112.358 126.496 112.03 126.124 111.586C126.653 111.844 127.167 112.015 127.711 112.13C128.24 112.244 128.783 112.273 129.326 112.258C130.398 112.23 131.456 111.929 132.428 111.3Z" fill="#E3405A"/>
<path d="M80.0309 201.862C79.6449 200.833 79.3304 199.775 79.1159 198.689C79.0587 198.417 79.0016 198.145 78.973 197.874C78.9301 197.602 78.9015 197.316 78.8586 197.059C78.8157 196.802 78.7442 196.53 78.6585 196.287C78.6156 196.158 78.5584 196.044 78.5155 195.915L78.3439 195.529C77.9151 194.514 77.5434 193.471 77.2431 192.413C76.9572 191.355 76.7571 190.254 76.7857 189.139C76.8285 189.682 76.9143 190.225 77.0287 190.754C77.1431 191.283 77.286 191.812 77.4576 192.341C77.7864 193.385 78.1724 194.414 78.6013 195.415L78.7585 195.787C78.8157 195.915 78.8729 196.044 78.9158 196.187C79.0016 196.459 79.073 196.73 79.1159 197.002C79.1445 197.145 79.1588 197.288 79.1731 197.416C79.1874 197.545 79.2017 197.688 79.216 197.817C79.2589 198.088 79.2875 198.36 79.3304 198.632C79.4162 199.175 79.5305 199.704 79.6449 200.247C79.7593 200.805 79.8879 201.334 80.0309 201.862Z" fill="#FA996E"/>
<g opacity="0.4">
<path d="M189.701 162.507C189.544 162.665 179.508 172.615 178.922 202.136H174.647C174.99 190.842 172.345 175.059 172.345 175.059C172.345 175.059 173.146 177.089 173.675 178.133C178.192 187.082 177.02 178.919 176.634 177.104C173.961 164.494 174.089 154.673 174.089 154.673C175.834 162.679 180.323 164.966 180.323 164.966C172.131 153.272 177.621 141.134 177.935 140.462C177.721 140.977 174.761 148.411 177.663 157.046C179.951 163.851 183.696 163.694 183.696 163.694C182.982 162.493 182.653 161.507 182.653 161.507C186.341 163.394 189.615 162.536 189.701 162.507Z" fill="#A65B3C"/>
</g>
<g opacity="0.4">
<path d="M123.153 161.518C123.153 161.518 127.813 158.073 138.078 158.316L138.336 154.842L139.436 154.685V151.354C139.436 151.354 144.64 151.711 149.772 156.972L151.474 154.356C151.474 154.356 147.528 151.182 139.436 150.439V154.685C139.436 154.685 130.058 155.199 123.153 161.518Z" fill="#A65B3C"/>
</g>
<g opacity="0.4">
<path d="M109.514 151.206C109.514 151.206 109.729 147.274 107.284 145.988C102.995 143.715 97.9344 145.988 97.9344 145.988C96.7764 133.536 101.237 124.601 102.338 122.613C95.0037 135.423 97.2339 147.117 97.2339 147.117C103.71 146.317 107.856 151.921 107.856 151.921C117.92 153.936 122.209 161.528 122.209 161.528C117.349 152.764 109.514 151.206 109.514 151.206Z" fill="#A65B3C"/>
</g>
<g opacity="0.4">
<path d="M102.337 122.629C102.423 122.486 102.494 122.358 102.58 122.215C102.58 122.215 102.494 122.358 102.337 122.629Z" fill="#A65B3C"/>
</g>
<g opacity="0.4">
<path d="M122.208 162.651C122.208 162.651 122.894 171.4 121.722 183.137L122.208 162.651Z" fill="#A65B3C"/>
</g>
<g opacity="0.4">
<path d="M171.599 157.731C171.599 157.731 170.541 146.266 179.105 136.116C179.105 136.101 169.212 140.476 171.599 157.731Z" fill="#A65B3C"/>
</g>
<g opacity="0.4">
<path d="M127.768 202.137C127.768 202.137 147.411 182.208 155.016 155.317C155.016 155.317 146.21 183.995 122.121 202.137H127.768Z" fill="#A65B3C"/>
</g>
<g opacity="0.4">
<path d="M145.599 202.144C145.599 202.144 150.974 190.45 155.02 173.909C155.02 173.909 148.372 191.822 140.423 202.144H145.599Z" fill="#A65B3C"/>
</g>
<g opacity="0.4">
<path d="M87.6268 183.134L93.0022 202.148H88.8563C89.4425 193.371 87.6268 183.134 87.6268 183.134Z" fill="#A65B3C"/>
</g>
<g opacity="0.4">
<path d="M158.304 137.879C158.304 137.879 159.39 124.426 169.669 122.11C169.669 122.11 158.747 120.209 158.304 137.879Z" fill="#A65B3C"/>
</g>
<g opacity="0.4">
<path d="M55.7597 174.409C55.7597 174.409 57.5896 183.573 68.5548 183.745C68.5548 183.73 61.807 184.302 55.7597 174.409Z" fill="#A65B3C"/>
</g>
<g opacity="0.4">
<path d="M65.294 178.365C65.294 178.365 71.4986 185.413 74.3721 194.12C74.3721 194.12 68.9967 183.469 65.294 178.365Z" fill="#A65B3C"/>
</g>
<g opacity="0.4">
<path d="M60.4746 167.17C60.4746 167.17 60.1743 171.916 64.7062 177.82C64.7062 177.82 59.2451 173.903 60.4746 167.17Z" fill="#A65B3C"/>
</g>
<path d="M127.766 202.137C128.552 201.322 129.31 200.465 130.067 199.621C130.825 198.763 131.54 197.891 132.269 197.019C132.626 196.576 132.984 196.147 133.341 195.69C133.699 195.246 134.042 194.803 134.399 194.346C135.1 193.445 135.786 192.544 136.458 191.63C137.144 190.715 137.816 189.8 138.459 188.87C138.788 188.413 139.117 187.941 139.431 187.469C139.76 186.998 140.075 186.526 140.375 186.054C141.633 184.153 142.805 182.208 143.92 180.221C146.165 176.261 148.181 172.187 150.039 168.026C151.869 163.866 153.527 159.635 155 155.317L155.029 155.331C153.728 159.692 152.141 163.981 150.311 168.155C149.382 170.242 148.409 172.301 147.366 174.317C146.851 175.332 146.294 176.333 145.765 177.333C145.207 178.32 144.65 179.32 144.063 180.293C143.492 181.279 142.877 182.237 142.291 183.223C141.69 184.181 141.075 185.153 140.461 186.111L140.003 186.826L139.531 187.541C139.217 188.013 138.917 188.499 138.588 188.97C137.959 189.914 137.301 190.858 136.644 191.772C136.301 192.23 135.972 192.702 135.629 193.145C135.285 193.602 134.942 194.06 134.585 194.503C134.228 194.946 133.884 195.404 133.513 195.833C133.155 196.276 132.784 196.719 132.426 197.148C130.954 198.878 129.424 200.593 127.78 202.152L127.766 202.137Z" fill="#A65B3C"/>
<path d="M145.595 202.143C146.081 200.999 146.539 199.841 146.982 198.683C147.439 197.525 147.883 196.367 148.297 195.195C149.155 192.864 149.984 190.52 150.756 188.161C151.542 185.802 152.286 183.443 152.986 181.056C153.701 178.683 154.359 176.281 155.016 173.893C154.873 174.494 154.745 175.108 154.602 175.709C154.459 176.309 154.316 176.924 154.159 177.525C153.844 178.725 153.544 179.926 153.201 181.127C153.029 181.728 152.872 182.328 152.686 182.914L152.143 184.701C151.971 185.302 151.771 185.888 151.585 186.474C151.399 187.06 151.214 187.661 151.013 188.247L150.413 190.005L149.798 191.764C149.598 192.35 149.369 192.936 149.155 193.522C149.041 193.808 148.94 194.108 148.826 194.394L148.483 195.266C148.254 195.852 148.026 196.424 147.797 196.996C147.568 197.568 147.325 198.14 147.096 198.726C146.624 199.884 146.138 201.028 145.595 202.143Z" fill="#A65B3C"/>
<path d="M93.0022 202.134C92.4304 200.59 91.9014 199.032 91.401 197.459C90.9007 195.887 90.4289 194.314 89.9714 192.727C89.5139 191.14 89.0993 189.553 88.699 187.952C88.2988 186.351 87.9413 184.75 87.6268 183.134C87.8556 183.921 88.0414 184.721 88.2702 185.522L88.9135 187.909C89.3567 189.496 89.7856 191.083 90.243 192.67C90.6862 194.257 91.158 195.829 91.6155 197.416L93.0022 202.134Z" fill="#A65B3C"/>
<path d="M180.308 164.979C178.964 163.292 177.963 161.362 177.191 159.346C176.419 157.331 175.933 155.201 175.733 153.056C175.676 152.513 175.661 151.984 175.633 151.441C175.633 151.169 175.633 150.897 175.633 150.626C175.633 150.497 175.633 150.354 175.633 150.225L175.647 149.825C175.69 148.753 175.804 147.666 176.005 146.609C176.105 146.08 176.205 145.551 176.348 145.022C176.419 144.764 176.476 144.493 176.548 144.235L176.777 143.463L176.891 143.077L177.034 142.691L177.306 141.934C177.491 141.433 177.72 140.933 177.92 140.447L177.649 141.205L177.506 141.576C177.463 141.705 177.406 141.834 177.377 141.962L177.134 142.734L177.02 143.12L176.92 143.506L176.705 144.278C176.634 144.536 176.591 144.807 176.519 145.065C176.391 145.579 176.319 146.108 176.219 146.637C176.19 146.766 176.176 146.894 176.162 147.037L176.119 147.438C176.09 147.709 176.047 147.967 176.019 148.238L175.947 149.039C175.919 149.311 175.919 149.568 175.904 149.839L175.89 150.24C175.89 150.368 175.89 150.511 175.89 150.64C175.89 150.912 175.89 151.169 175.904 151.441C175.933 151.97 175.947 152.513 176.005 153.042C176.105 154.1 176.262 155.158 176.491 156.201C176.719 157.245 177.034 158.274 177.377 159.275C177.734 160.276 178.149 161.276 178.635 162.22C179.135 163.178 179.679 164.107 180.308 164.979Z" fill="#A65B3C"/>
<path d="M176.563 176.606C176.349 175.706 176.149 174.805 175.948 173.904C175.763 173.004 175.591 172.103 175.419 171.188C175.091 169.373 174.819 167.543 174.59 165.727C174.376 163.897 174.204 162.053 174.104 160.223C174.09 159.765 174.061 159.308 174.047 158.836C174.033 158.379 174.018 157.921 174.018 157.45L174.033 156.063C174.047 155.605 174.061 155.148 174.076 154.676C174.09 155.134 174.104 155.591 174.104 156.063L174.161 157.435L174.233 158.808C174.261 159.265 174.29 159.723 174.333 160.18C174.476 162.01 174.647 163.84 174.876 165.67C175.091 167.5 175.362 169.315 175.634 171.131C175.777 172.046 175.92 172.947 176.077 173.862C176.249 174.805 176.406 175.706 176.563 176.606Z" fill="#A65B3C"/>
<path d="M171.6 157.73C171.457 155.786 171.6 153.813 171.872 151.883C172.001 150.911 172.201 149.953 172.415 148.995C172.644 148.037 172.901 147.094 173.216 146.164C173.53 145.235 173.888 144.32 174.288 143.434L174.602 142.762C174.703 142.533 174.817 142.319 174.931 142.104C175.046 141.89 175.146 141.661 175.274 141.447L175.632 140.803C175.746 140.589 175.889 140.389 176.018 140.174C176.146 139.974 176.275 139.76 176.404 139.56C176.675 139.159 176.947 138.745 177.247 138.359C177.819 137.572 178.462 136.829 179.12 136.1C178.505 136.858 177.905 137.615 177.362 138.43C177.076 138.83 176.818 139.245 176.561 139.645C176.432 139.846 176.318 140.06 176.189 140.274C176.075 140.489 175.946 140.689 175.832 140.903C175.36 141.761 174.931 142.633 174.545 143.52C174.159 144.406 173.816 145.321 173.502 146.236C172.887 148.08 172.415 149.967 172.101 151.883C171.943 152.841 171.815 153.813 171.743 154.785C171.629 155.771 171.586 156.744 171.6 157.73Z" fill="#A65B3C"/>
<path d="M158.304 137.874C158.361 137.002 158.504 136.144 158.661 135.301C158.833 134.443 159.047 133.599 159.304 132.77C159.819 131.112 160.505 129.496 161.42 128.01C161.878 127.266 162.392 126.566 162.979 125.894C163.565 125.236 164.208 124.65 164.909 124.121C165.609 123.592 166.381 123.177 167.182 122.82L167.796 122.577C167.997 122.506 168.211 122.448 168.425 122.391L168.74 122.305C168.84 122.277 168.954 122.263 169.054 122.234L169.698 122.105C168.854 122.32 168.025 122.577 167.253 122.949L167.11 123.02L166.967 123.092L166.681 123.249L166.395 123.406C166.295 123.449 166.21 123.521 166.124 123.578C165.938 123.692 165.766 123.807 165.58 123.921L165.066 124.307C164.394 124.836 163.765 125.436 163.207 126.08C162.65 126.737 162.149 127.423 161.692 128.167C161.234 128.896 160.848 129.668 160.491 130.44C160.134 131.226 159.819 132.027 159.547 132.842C159.276 133.657 159.033 134.486 158.833 135.329C158.59 136.173 158.418 137.016 158.304 137.874Z" fill="#A65B3C"/>
<path d="M168.327 127.253C169.113 126.409 170.057 125.737 171.057 125.166C172.058 124.608 173.145 124.165 174.245 123.85C175.36 123.536 176.504 123.336 177.648 123.264C178.792 123.193 179.95 123.236 181.079 123.407C179.935 123.35 178.792 123.379 177.662 123.493C177.519 123.507 177.376 123.522 177.233 123.536L176.804 123.593C176.518 123.636 176.247 123.679 175.961 123.736C175.403 123.836 174.846 123.979 174.303 124.122C173.759 124.265 173.216 124.465 172.687 124.665C172.158 124.865 171.643 125.108 171.129 125.366C170.628 125.623 170.128 125.909 169.656 126.224C169.213 126.538 168.741 126.881 168.327 127.253Z" fill="#A65B3C"/>
<path d="M182.939 131.173C183.725 130.072 184.726 129.143 185.813 128.357C186.913 127.57 188.114 126.913 189.372 126.441C190.001 126.198 190.659 125.998 191.317 125.855C191.645 125.769 191.974 125.712 192.317 125.655C192.646 125.598 192.989 125.555 193.318 125.512C194.662 125.369 196.02 125.397 197.35 125.569C196.006 125.497 194.662 125.555 193.347 125.726C193.175 125.74 193.018 125.769 192.846 125.798C192.689 125.826 192.517 125.855 192.36 125.883C192.031 125.955 191.703 126.012 191.388 126.098C191.059 126.169 190.745 126.269 190.43 126.37C190.116 126.47 189.801 126.57 189.487 126.698C188.858 126.927 188.257 127.199 187.657 127.513C187.071 127.813 186.499 128.157 185.941 128.543C185.384 128.914 184.855 129.329 184.354 129.758C183.854 130.187 183.368 130.658 182.939 131.173Z" fill="#A65B3C"/>
<path d="M152.643 155.315C152.987 153.871 153.287 152.427 153.544 150.969C153.816 149.511 154.03 148.052 154.216 146.58C154.588 143.649 154.845 140.69 154.859 137.731C154.874 137.359 154.859 136.987 154.859 136.615C154.859 136.244 154.859 135.872 154.845 135.5L154.816 134.385L154.759 133.284C154.659 131.812 154.502 130.339 154.273 128.881L154.23 128.61L154.173 128.338L154.073 127.795L153.973 127.251C153.93 127.066 153.887 126.894 153.844 126.708C153.759 126.351 153.687 125.993 153.587 125.636L153.287 124.564C152.858 123.148 152.329 121.762 151.686 120.432C152.386 121.747 152.944 123.12 153.415 124.535L153.744 125.607C153.844 125.965 153.93 126.322 154.016 126.68C154.059 126.865 154.116 127.037 154.145 127.223L154.259 127.766L154.373 128.309L154.43 128.581L154.473 128.853C154.988 131.783 155.16 134.757 155.131 137.731C155.117 139.217 155.031 140.704 154.917 142.177C154.788 143.649 154.645 145.136 154.416 146.594C154.016 149.539 153.444 152.456 152.643 155.315Z" fill="#A65B3C"/>
<path d="M139.437 154.689C139.408 153.975 139.394 153.274 139.38 152.559L139.351 151.501L139.337 150.443V150.329H139.451C140.051 150.372 140.652 150.429 141.238 150.515C141.824 150.601 142.425 150.701 143.011 150.815C144.183 151.044 145.341 151.358 146.485 151.73C147.057 151.93 147.614 152.145 148.157 152.373C148.701 152.616 149.244 152.874 149.773 153.174C150.288 153.474 150.802 153.789 151.288 154.146C151.774 154.504 152.232 154.89 152.646 155.318C152.189 154.932 151.717 154.575 151.217 154.246C150.716 153.932 150.202 153.632 149.673 153.36C148.615 152.817 147.514 152.373 146.385 152.016C145.255 151.644 144.112 151.344 142.939 151.101C141.781 150.858 140.595 150.672 139.422 150.558L139.537 150.458L139.523 151.516L139.494 152.574C139.48 153.274 139.465 153.989 139.437 154.689Z" fill="#A65B3C"/>
<path d="M123.153 161.525C124.225 160.467 125.412 159.538 126.684 158.738C127.956 157.937 129.3 157.251 130.701 156.693C132.102 156.136 133.546 155.707 135.004 155.378C136.463 155.049 137.949 154.82 139.451 154.692C137.978 154.935 136.506 155.235 135.062 155.592C133.618 155.964 132.188 156.407 130.816 156.965C129.429 157.508 128.085 158.166 126.813 158.923C125.512 159.695 124.297 160.553 123.153 161.525Z" fill="#A65B3C"/>
<path d="M107.282 145.982C107.739 146.182 108.097 146.554 108.411 146.94C108.712 147.34 108.94 147.784 109.126 148.255C109.298 148.727 109.426 149.213 109.498 149.699C109.584 150.185 109.626 150.686 109.641 151.186L109.541 151.072C110.241 151.229 110.899 151.458 111.571 151.715C112.228 151.972 112.872 152.273 113.501 152.601C114.745 153.259 115.931 154.045 117.018 154.946C118.118 155.832 119.091 156.862 119.977 157.962C120.406 158.52 120.835 159.078 121.192 159.678C121.392 159.964 121.55 160.278 121.735 160.579C121.907 160.879 122.064 161.193 122.236 161.508C122.05 161.208 121.878 160.907 121.692 160.607C121.507 160.321 121.321 160.021 121.106 159.735L120.806 159.306L120.492 158.892C120.291 158.606 120.063 158.348 119.834 158.077C119.376 157.548 118.919 157.019 118.404 156.547C118.276 156.418 118.161 156.304 118.033 156.19L117.647 155.832C117.389 155.604 117.118 155.375 116.846 155.16C115.774 154.274 114.587 153.516 113.358 152.859C112.743 152.53 112.114 152.23 111.471 151.972C110.827 151.715 110.155 151.486 109.498 151.329L109.398 151.3V151.2C109.383 150.714 109.369 150.228 109.298 149.742C109.226 149.256 109.126 148.784 108.969 148.312C108.812 147.855 108.611 147.397 108.34 146.997C108.197 146.797 108.054 146.611 107.868 146.425C107.696 146.268 107.511 146.097 107.282 145.982Z" fill="#A65B3C"/>
<path d="M97.9625 145.983C98.3057 145.783 98.6916 145.64 99.0633 145.483C99.4493 145.354 99.8353 145.24 100.221 145.154C101.008 144.983 101.823 144.882 102.623 144.897C103.424 144.911 104.239 144.983 105.025 145.183C105.425 145.254 105.797 145.397 106.183 145.512C106.369 145.569 106.555 145.654 106.74 145.74C106.926 145.812 107.112 145.898 107.284 145.983C107.084 145.926 106.898 145.869 106.712 145.812C106.526 145.755 106.34 145.683 106.14 145.654C105.754 145.569 105.368 145.454 104.982 145.397L104.696 145.34C104.596 145.326 104.496 145.297 104.41 145.297L103.824 145.24C103.624 145.211 103.424 145.211 103.238 145.197C103.038 145.183 102.838 145.168 102.652 145.183C102.452 145.183 102.251 145.183 102.066 145.183L101.479 145.226C101.079 145.254 100.693 145.311 100.307 145.369C99.4779 145.512 98.7059 145.697 97.9625 145.983Z" fill="#A65B3C"/>
<path d="M121.722 183.138C121.794 182.281 121.851 181.437 121.908 180.579C121.965 179.722 122.022 178.878 122.08 178.02C122.18 176.319 122.265 174.604 122.323 172.902C122.351 172.045 122.38 171.201 122.38 170.343C122.408 169.486 122.394 168.642 122.394 167.784C122.38 166.083 122.323 164.368 122.208 162.666C122.437 164.368 122.566 166.069 122.623 167.784C122.68 169.5 122.651 171.215 122.609 172.917C122.551 174.632 122.451 176.333 122.294 178.049C122.151 179.736 121.965 181.437 121.722 183.138Z" fill="#A65B3C"/>
<path d="M74.3734 194.12C74.116 193.405 73.8301 192.69 73.5299 191.99L73.0724 190.946L72.6006 189.902C71.9573 188.516 71.2568 187.172 70.4991 185.842C70.1274 185.17 69.7271 184.527 69.3268 183.884C69.1266 183.555 68.9122 183.24 68.712 182.926L68.3975 182.454L68.0687 181.982L67.4111 181.053L66.7106 180.152C66.5962 179.995 66.4818 179.852 66.3675 179.695L65.9958 179.252C65.7527 178.966 65.5097 178.666 65.2667 178.365C65.524 178.637 65.7956 178.923 66.053 179.195L66.439 179.609C66.5676 179.752 66.682 179.895 66.8107 180.052L67.5398 180.939C67.7685 181.239 67.9972 181.553 68.226 181.854L68.5691 182.311L68.8979 182.783C69.1123 183.097 69.3268 183.412 69.5412 183.741C69.9415 184.398 70.3561 185.042 70.7278 185.714C71.4855 187.043 72.1717 188.416 72.7722 189.817C73.4155 191.218 73.9588 192.662 74.3734 194.12Z" fill="#A65B3C"/>
<path d="M64.7087 177.82C64.0511 177.091 63.4792 176.305 62.9646 175.476C62.4499 174.647 61.9924 173.774 61.6064 172.874C61.2204 171.973 60.9345 171.03 60.7201 170.086C60.5056 169.128 60.4484 168.142 60.477 167.17C60.5056 167.413 60.5342 167.656 60.5485 167.899C60.5628 168.013 60.5628 168.142 60.5914 168.256L60.6486 168.614C60.6915 168.857 60.7201 169.085 60.7772 169.328L60.9488 170.029L60.9917 170.2L61.0489 170.372L61.1489 170.715C61.2204 170.944 61.2776 171.173 61.3634 171.401L61.6064 172.088L61.8781 172.759C62.2498 173.646 62.6929 174.518 63.1647 175.361C63.4077 175.776 63.6508 176.205 63.9081 176.605C64.1511 177.02 64.4228 177.42 64.7087 177.82Z" fill="#A65B3C"/>
<path d="M68.5561 183.729C67.1265 183.829 65.6683 183.658 64.2673 183.3C62.8662 182.943 61.5224 182.357 60.3215 181.527C59.7211 181.113 59.1635 180.641 58.6632 180.126C58.1628 179.597 57.7196 179.026 57.3336 178.411C56.5759 177.181 56.0612 175.809 55.7753 174.394C56.1756 175.766 56.7475 177.096 57.5195 178.282C57.9198 178.868 58.3629 179.426 58.8633 179.926C59.3637 180.427 59.9069 180.884 60.4931 181.284C61.0792 181.699 61.694 182.028 62.3373 182.328C62.9806 182.628 63.6525 182.871 64.3388 183.071C65.025 183.272 65.7255 183.429 66.426 183.529C67.1265 183.658 67.8413 183.729 68.5561 183.729Z" fill="#A65B3C"/>
<path d="M65.049 176.454C64.3485 173.037 63.9768 169.549 63.791 166.061C63.6194 162.572 63.6766 159.07 63.9768 155.582C64.0197 155.153 64.0483 154.71 64.1055 154.281L64.2627 152.98C64.3199 152.551 64.3914 152.108 64.4486 151.679C64.4772 151.464 64.5058 151.25 64.5487 151.035L64.663 150.392L64.7774 149.749C64.8203 149.534 64.8489 149.32 64.9061 149.105L65.1634 147.819C65.2492 147.39 65.3635 146.961 65.4636 146.546L65.6209 145.903L65.7924 145.274C66.2356 143.587 66.8075 141.929 67.4365 140.299L67.9369 139.084C68.1084 138.684 68.2943 138.283 68.4801 137.897L68.7517 137.297C68.8518 137.097 68.9519 136.911 69.052 136.711L69.6524 135.553C68.0941 138.669 66.8646 141.957 66.0069 145.331L65.8353 145.96L65.6924 146.604C65.5923 147.033 65.4922 147.447 65.4064 147.876L65.1491 149.163C65.1062 149.377 65.0633 149.592 65.0347 149.806L64.9204 150.449L64.806 151.093C64.7631 151.307 64.7488 151.522 64.7059 151.736C64.6487 152.165 64.5772 152.594 64.5201 153.023L64.3771 154.324C64.3199 154.752 64.2913 155.196 64.2484 155.625C63.9196 159.099 63.8767 162.587 63.9911 166.061C64.0483 167.805 64.177 169.549 64.3485 171.279C64.5344 173.009 64.7488 174.739 65.049 176.454Z" fill="#A65B3C"/>
<path d="M102.576 122.215C102.09 123.115 101.662 124.045 101.261 124.988C100.861 125.932 100.504 126.89 100.175 127.862C99.8602 128.834 99.5457 129.806 99.2884 130.792C99.0167 131.779 98.8023 132.78 98.6164 133.78C98.2161 135.782 97.9874 137.812 97.8587 139.856C97.8158 140.871 97.7729 141.901 97.8015 142.93C97.8015 143.445 97.8301 143.959 97.8444 144.46C97.8444 144.717 97.873 144.974 97.8873 145.232L97.9302 146.004C97.8015 144.989 97.7015 143.959 97.6443 142.944C97.5871 141.915 97.6014 140.886 97.6157 139.856C97.6872 137.798 97.9302 135.753 98.3162 133.737C98.7165 131.722 99.2455 129.735 99.946 127.79C100.675 125.86 101.504 123.959 102.576 122.215Z" fill="#A65B3C"/>
<g opacity="0.8">
<path d="M127.269 166.952C127.939 166.282 127.939 165.196 127.269 164.526C126.599 163.856 125.513 163.856 124.843 164.526C124.173 165.196 124.173 166.282 124.843 166.952C125.513 167.622 126.599 167.622 127.269 166.952Z" fill="white"/>
</g>
<g opacity="0.8">
<path d="M127.745 176.064C127.897 175.129 127.262 174.248 126.326 174.096C125.391 173.944 124.51 174.58 124.358 175.515C124.206 176.45 124.841 177.331 125.777 177.483C126.712 177.635 127.593 177 127.745 176.064Z" fill="white"/>
</g>
<path d="M239.279 201.883H22.7198V202.311H239.279V201.883Z" fill="#1B1A2E"/>
<path d="M80.0313 201.867C80.0313 201.867 79.2307 199.408 79.0306 197.392C78.9734 196.877 78.8447 196.363 78.6446 195.877C78.0298 194.49 76.8146 191.459 76.7861 189.143C76.7575 186.07 70.3242 189.787 73.1834 197.135C73.1834 197.135 68.9803 194.276 64.8058 197.821C64.8058 197.821 62.161 193.546 56.1852 196.763C56.1852 196.763 53.7263 193.06 49.08 195.891C49.08 195.891 41.503 192.774 40.4594 201.853H44.2622L45.4488 203.225C45.4488 203.225 43.4616 209.001 48.1793 210.988C48.1793 210.988 47.779 215.234 49.3087 217.678C50.3238 219.294 52.8113 218.908 53.3117 217.064C53.3117 217.049 53.326 217.021 53.326 217.007C53.326 217.007 54.1266 219.308 56.0709 218.965C57.7006 218.679 58.7299 216.535 58.7299 216.535C58.7299 216.535 62.0324 217.493 64.3769 213.59C66.7358 209.687 68.194 207.528 68.194 207.528L72.6116 201.853H80.0313V201.867Z" fill="#FFC89F"/>
<path d="M64.8195 197.833C65.134 198.619 65.1626 199.491 65.0625 200.32C65.0482 200.42 65.0339 200.535 65.0053 200.635L64.9481 200.949C64.8909 201.149 64.8338 201.364 64.7766 201.564C64.7051 201.764 64.6336 201.964 64.5478 202.15C64.4621 202.336 64.3763 202.536 64.2762 202.722C64.1761 202.908 64.0618 203.079 63.9474 203.265L63.59 203.78C63.347 204.123 63.1182 204.452 62.9181 204.824C62.5178 205.553 62.2175 206.325 61.9459 207.111C61.6886 207.897 61.4456 208.698 61.2168 209.498L60.5449 211.9C60.3162 212.701 60.0731 213.501 59.8015 214.288C59.6728 214.688 59.5156 215.074 59.3583 215.46C59.2725 215.66 59.1868 215.846 59.0867 216.032C58.9866 216.218 58.8722 216.404 58.7436 216.561L58.715 216.546C58.9294 216.189 59.0724 215.803 59.2153 215.417C59.3583 215.031 59.4584 214.631 59.5728 214.231L60.2304 211.829C60.4591 211.028 60.6879 210.228 60.9452 209.427C61.1882 208.626 61.4742 207.84 61.7887 207.068C61.9459 206.682 62.1175 206.296 62.2747 205.91C62.4463 205.524 62.6321 205.152 62.818 204.781C63.0038 204.409 63.2183 204.052 63.447 203.694L63.7615 203.165C63.8616 202.979 63.9474 202.794 64.0475 202.622C64.4049 201.879 64.7051 201.107 64.8338 200.306C64.9052 199.906 64.9338 199.491 64.9481 199.077C64.9481 198.662 64.9052 198.247 64.7909 197.847L64.8195 197.833Z" fill="#FA996E"/>
<path d="M56.1861 196.777C56.3433 196.935 56.4577 197.12 56.5721 197.321C56.6292 197.421 56.6721 197.521 56.715 197.621L56.8294 197.935C56.9724 198.364 57.0438 198.793 57.0867 199.251C57.1439 200.137 57.0009 201.038 56.7436 201.881C56.6721 202.095 56.6149 202.296 56.5292 202.51L56.2718 203.125C56.1003 203.525 55.9144 203.925 55.7572 204.326C55.4284 205.141 55.1567 205.97 54.8994 206.799C54.6564 207.642 54.4276 208.486 54.2132 209.329C54.013 210.173 53.8129 211.031 53.6699 211.888C53.5127 212.746 53.384 213.604 53.3125 214.476C53.241 215.348 53.2124 216.22 53.2839 217.092H53.2553C53.0838 216.234 53.0552 215.348 53.0838 214.462C53.1124 213.575 53.2267 212.703 53.3697 211.831C53.5127 210.959 53.7271 210.116 53.9559 209.258C54.1846 208.414 54.4562 207.571 54.7564 206.742L55.2139 205.512L55.4427 204.898L55.6714 204.283C55.8144 203.868 55.9859 203.468 56.1289 203.053L56.3433 202.439C56.4148 202.238 56.4577 202.024 56.5149 201.81C56.7293 200.966 56.8723 200.123 56.858 199.251C56.8437 198.822 56.7865 198.393 56.6721 197.978C56.5578 197.564 56.4005 197.149 56.1432 196.806L56.1861 196.777Z" fill="#FA996E"/>
<path d="M48.1799 211.006C48.2657 211.035 48.3515 211.063 48.4372 211.078C48.523 211.106 48.6088 211.121 48.6946 211.135C48.8661 211.149 49.0234 211.092 49.152 210.992C49.2807 210.892 49.3665 210.749 49.3951 210.592C49.4094 210.52 49.4094 210.42 49.4094 210.334L49.4237 210.063C49.4809 209.348 49.5523 208.633 49.6667 207.933C49.7954 207.232 49.9526 206.532 50.1099 205.831C50.1814 205.488 50.2671 205.131 50.3529 204.787C50.3958 204.616 50.453 204.444 50.4959 204.273C50.5531 204.101 50.596 203.93 50.6531 203.758C50.7103 203.587 50.7818 203.415 50.839 203.258C50.8962 203.086 50.9391 202.929 50.9677 202.757C50.9963 202.586 51.0248 202.414 51.0248 202.243C51.0248 202.071 51.0391 201.885 51.0391 201.714C51.0391 201.356 51.0391 201.013 51.0106 200.656C50.982 200.298 50.9534 199.955 50.8962 199.612C50.7961 198.912 50.6246 198.24 50.3386 197.596C50.0527 196.967 49.6381 196.381 49.0806 195.938L49.0949 195.909C49.7096 196.281 50.1957 196.853 50.5388 197.496C50.8819 198.14 51.082 198.854 51.1964 199.569C51.3108 200.284 51.3394 201.013 51.2965 201.728C51.2965 201.914 51.2822 202.085 51.2679 202.271C51.2536 202.457 51.225 202.643 51.1821 202.815C51.1392 202.986 51.082 203.172 51.0106 203.343C50.9391 203.515 50.8676 203.672 50.7961 203.83C50.5245 204.487 50.3386 205.173 50.1957 205.874C50.0527 206.574 49.9812 207.275 49.8954 207.99L49.6381 210.106L49.6095 210.377C49.5952 210.463 49.5952 210.549 49.5666 210.649C49.5237 210.849 49.3951 211.021 49.2378 211.135C49.0806 211.249 48.8661 211.292 48.6803 211.249C48.5802 211.235 48.4944 211.192 48.4229 211.164C48.3372 211.135 48.2514 211.092 48.1799 211.049V211.006Z" fill="#FA996E"/>
<path d="M72.8276 196.949C73.285 197.107 73.7139 197.45 73.9713 197.893C74.0999 198.122 74.1857 198.365 74.2143 198.622C74.2429 198.879 74.2286 199.137 74.1857 199.394C74.1285 199.651 74.0428 199.88 73.9427 200.109C73.8283 200.337 73.7139 200.552 73.571 200.752C73.285 201.167 72.9562 201.524 72.5845 201.853C72.8705 201.453 73.1421 201.052 73.3708 200.638C73.5996 200.223 73.7997 199.78 73.8855 199.322C73.9713 198.865 73.9427 198.393 73.7568 197.979C73.5853 197.578 73.2422 197.221 72.8276 196.949Z" fill="#FA996E"/>
<path d="M44.2651 201.872C44.165 201.729 44.0936 201.572 44.0364 201.415C43.9792 201.258 43.9506 201.086 43.9363 200.914C43.922 200.743 43.9363 200.571 43.9649 200.4C43.9935 200.228 44.0507 200.071 44.1507 199.928C44.1793 200.1 44.1793 200.257 44.1936 200.414L44.2365 200.886C44.2365 201.229 44.2651 201.529 44.2651 201.872Z" fill="#FA996E"/>
<path d="M56.1725 196.788C55.7293 196.288 55.2146 195.873 54.6428 195.573C54.071 195.273 53.4562 195.073 52.8129 195.016C52.1696 194.958 51.5262 195.03 50.8972 195.201C50.2682 195.373 49.6534 195.63 49.0673 195.916C49.5962 195.516 50.1967 195.201 50.84 194.987C51.1545 194.873 51.4976 194.801 51.8264 194.758C52.1696 194.715 52.5127 194.715 52.8415 194.73C53.5277 194.787 54.1853 195.016 54.7572 195.373C55.3433 195.73 55.8294 196.216 56.1725 196.788Z" fill="#FA996E"/>
<path d="M64.8051 197.855C64.3047 197.226 63.6757 196.74 62.9751 196.368C62.2746 196.011 61.5169 195.796 60.7449 195.753C59.9729 195.696 59.1866 195.796 58.4147 195.996C57.657 196.182 56.8993 196.468 56.1701 196.797C56.8421 196.368 57.5712 196.011 58.3432 195.782C58.5433 195.725 58.7292 195.668 58.9293 195.625C59.1295 195.582 59.3296 195.553 59.5298 195.51C59.93 195.468 60.3446 195.439 60.7449 195.468C61.1452 195.496 61.5598 195.568 61.9458 195.682C62.3318 195.796 62.7178 195.968 63.0609 196.168C63.79 196.583 64.3905 197.154 64.8051 197.855Z" fill="#FA996E"/>
<path d="M73.1816 197.158C72.5097 196.814 71.8092 196.557 71.0801 196.4C70.351 196.243 69.6219 196.171 68.8785 196.228C68.1494 196.285 67.4203 196.457 66.734 196.743C66.0478 197.029 65.4045 197.415 64.7898 197.844C65.3187 197.315 65.9477 196.872 66.634 196.529C67.3202 196.2 68.0779 196 68.8499 195.942C69.6219 195.885 70.3939 195.971 71.123 196.185C71.8664 196.386 72.5669 196.7 73.1816 197.158Z" fill="#FA996E"/>
<path d="M72.6088 191.961C72.5802 192.404 72.5516 192.848 72.5659 193.277C72.5802 193.72 72.6088 194.149 72.666 194.577C72.7232 195.006 72.7947 195.435 72.8804 195.864C72.9662 196.293 73.0806 196.722 73.1807 197.151C72.9662 196.765 72.7947 196.35 72.666 195.921C72.523 195.492 72.4373 195.049 72.3801 194.606C72.3229 194.163 72.3086 193.705 72.3515 193.262C72.3658 192.819 72.4515 192.376 72.6088 191.961Z" fill="#FA996E"/>
<path d="M192.046 130.285C192.046 130.285 180.094 136.447 178.664 149.027C177.235 161.608 189.715 162.523 189.715 162.523C189.715 162.523 214.376 168.141 227.357 156.376C227.357 156.376 244.155 146.297 229.973 131.071C229.973 131.071 206.342 99.1193 181.28 80.2054C181.28 80.2054 171.044 68.4968 158.178 69.8979L139.85 68.4111L137.191 69.2831L128.099 68.9114C128.099 68.9114 122.466 69.5405 117.505 68.2538C116.776 68.0679 116.118 68.7256 116.304 69.4547C116.39 69.7978 116.547 70.1409 116.805 70.4125C116.805 70.4125 112.659 70.5698 109.785 70.0408C108.956 69.8836 108.227 70.627 108.413 71.4418C108.47 71.6849 108.556 71.9422 108.67 72.2281L105.511 72.1853C104.553 72.171 103.924 73.1574 104.324 74.0295C104.696 74.8444 105.496 75.6592 107.183 75.9166C107.183 75.9166 107.169 78.4899 114.303 77.5749L122.194 77.9323L130.329 77.8466C130.329 77.8466 135.461 80.1768 141.666 80.0625L150.272 83.2362C150.272 83.2362 154.99 88.5544 162.224 86.0526C162.224 86.0526 168.071 91.8568 176.677 104.137C184.855 115.889 192.046 130.285 192.046 130.285Z" fill="#FFC89F"/>
<path d="M130.297 77.8384C131.942 78.3959 133.6 78.8391 135.273 79.2537C135.687 79.3538 136.116 79.4539 136.531 79.5396C136.945 79.6397 137.374 79.7112 137.803 79.7827C138.017 79.8113 138.232 79.8399 138.446 79.8685C138.661 79.8971 138.875 79.9256 139.09 79.9256C139.518 79.9685 139.947 79.9828 140.391 79.9971C141.248 80.04 142.135 80.0972 142.978 80.3116C143.407 80.426 143.822 80.5547 144.222 80.7262C144.622 80.8835 145.023 81.0407 145.437 81.198C147.038 81.8413 148.639 82.5133 150.212 83.2281L150.198 83.2567C148.554 82.6991 146.938 82.0987 145.323 81.4839C144.922 81.3267 144.522 81.1694 144.122 81.0122C143.722 80.8406 143.321 80.6976 142.907 80.5833C142.092 80.3545 141.234 80.2545 140.376 80.1687C138.646 79.9828 136.931 79.8113 135.215 79.4968C134.358 79.3252 133.528 79.0965 132.699 78.8248C131.87 78.5532 131.055 78.253 130.283 77.8813L130.297 77.8384Z" fill="#FA996E"/>
<path d="M107.167 75.9151C107.181 76.0724 107.253 76.2296 107.339 76.3583L107.41 76.4584L107.496 76.5441L107.567 76.6299C107.596 76.6585 107.625 76.6871 107.653 76.7014C107.768 76.8158 107.911 76.8872 108.039 76.973C108.111 77.0159 108.182 77.0445 108.254 77.0874C108.325 77.116 108.397 77.1589 108.468 77.1875C109.069 77.4305 109.712 77.5163 110.355 77.5735C110.684 77.6021 110.999 77.6164 111.327 77.6164C111.656 77.6164 111.971 77.6307 112.3 77.6021C112.628 77.5878 112.957 77.5878 113.272 77.5592L114.244 77.4877H114.258C114.93 77.5449 115.588 77.5735 116.26 77.6021L117.26 77.6449L118.261 77.6735C119.591 77.6878 120.934 77.745 122.264 77.7879C123.594 77.7593 124.937 77.745 126.267 77.7593C127.596 77.7593 128.94 77.7879 130.27 77.8308V77.8594C128.94 77.9309 127.596 77.9738 126.267 78.0166C124.937 78.0595 123.594 78.0738 122.264 78.0738C120.934 78.0166 119.591 77.9309 118.261 77.8308L117.26 77.7593L116.26 77.7021C115.588 77.6592 114.93 77.645 114.258 77.6307H114.272C113.615 77.7164 112.971 77.8165 112.314 77.8594C112.142 77.8737 111.985 77.888 111.813 77.888H111.313C110.984 77.9023 110.655 77.8594 110.327 77.8308C109.669 77.7593 108.997 77.6449 108.397 77.359C108.325 77.3304 108.254 77.2875 108.168 77.2447C108.096 77.2018 108.011 77.1732 107.953 77.116L107.753 76.973C107.682 76.9301 107.625 76.8587 107.567 76.8015C107.539 76.7729 107.51 76.7443 107.482 76.7157L107.41 76.6156L107.339 76.5155L107.282 76.4012C107.196 76.2582 107.153 76.0867 107.153 75.9151H107.167Z" fill="#FA996E"/>
<path d="M108.641 72.2309C107.854 72.2738 107.082 72.3024 106.296 72.3167H105.71C105.61 72.3167 105.51 72.3167 105.424 72.3167C105.338 72.3167 105.253 72.331 105.167 72.3596C104.824 72.4454 104.538 72.7027 104.409 73.0172C104.338 73.1745 104.295 73.346 104.309 73.5176C104.309 73.6891 104.366 73.8607 104.438 74.018C104.595 74.3611 104.824 74.6613 105.095 74.9186C105.653 75.4333 106.382 75.7335 107.14 75.9051C106.754 75.8765 106.368 75.805 105.982 75.6763C105.61 75.5477 105.253 75.3618 104.938 75.0902C104.623 74.8328 104.366 74.504 104.18 74.1466C104.08 73.9608 104.023 73.7463 104.009 73.5319C103.994 73.3174 104.037 73.103 104.123 72.9029C104.295 72.5026 104.652 72.2023 105.081 72.088C105.181 72.0737 105.295 72.0451 105.395 72.0451C105.51 72.0451 105.596 72.0451 105.696 72.0451L106.282 72.0594C107.097 72.1166 107.869 72.1594 108.641 72.2309Z" fill="#FA996E"/>
<path d="M116.774 70.4125C115.931 70.4983 115.073 70.5269 114.23 70.5269C113.372 70.5269 112.528 70.4983 111.671 70.4268C111.242 70.3839 110.827 70.3411 110.398 70.2696C110.184 70.241 109.984 70.1981 109.769 70.1552C109.569 70.1123 109.383 70.1123 109.197 70.1695C108.826 70.2839 108.525 70.5984 108.44 70.9987C108.397 71.1988 108.425 71.399 108.468 71.5991C108.511 71.7993 108.583 72.0137 108.64 72.2139C108.54 72.028 108.454 71.8279 108.382 71.6277C108.311 71.4276 108.254 71.1988 108.282 70.9844C108.34 70.5269 108.668 70.1266 109.112 69.9693C109.326 69.8836 109.583 69.8836 109.798 69.9122C110.012 69.9408 110.212 69.9836 110.427 69.9979C110.841 70.0551 111.27 70.098 111.685 70.1266C112.528 70.1981 113.372 70.2553 114.215 70.2982L115.488 70.3553C115.917 70.3839 116.345 70.3982 116.774 70.4125Z" fill="#FA996E"/>
<path d="M143.379 68.7231C143.065 68.7088 142.736 68.6945 142.421 68.6802C142.107 68.6659 141.778 68.6516 141.464 68.623C140.82 68.5802 140.191 68.6087 139.562 68.7088C139.248 68.766 138.947 68.8375 138.647 68.9233C138.347 69.0233 138.033 69.1234 137.718 69.1949C137.075 69.3379 136.417 69.3807 135.774 69.3379C134.487 69.2664 133.215 69.1663 131.928 69.1091C131.285 69.0805 130.641 69.0662 129.998 69.0376L128.068 68.9947H128.082C126.939 69.1377 125.781 69.1806 124.623 69.1949C123.465 69.1949 122.307 69.152 121.163 69.0376C120.019 68.9233 118.876 68.7088 117.761 68.4229L117.546 68.3657L117.446 68.3371L117.346 68.3228C117.217 68.3085 117.089 68.3085 116.96 68.3371C116.703 68.4086 116.488 68.5945 116.374 68.8375C116.317 68.9519 116.288 69.0948 116.288 69.2235C116.288 69.3521 116.331 69.4951 116.374 69.6238C116.46 69.8954 116.588 70.1527 116.774 70.3672L116.76 70.3815C116.56 70.1813 116.402 69.924 116.302 69.6524C116.245 69.5237 116.202 69.3807 116.188 69.2235C116.174 69.0662 116.188 68.909 116.259 68.766C116.374 68.4801 116.617 68.2513 116.917 68.1513C117.06 68.1084 117.232 68.0798 117.389 68.1084L117.503 68.1227L117.603 68.1513L117.818 68.1942C118.933 68.4515 120.062 68.6087 121.206 68.7231C122.35 68.8232 123.493 68.8947 124.637 68.909C125.781 68.909 126.924 68.8804 128.068 68.7946H128.082L129.998 68.909C130.641 68.9376 131.285 68.9804 131.928 69.009C133.215 69.0662 134.501 69.0662 135.774 69.0948C136.403 69.1091 137.032 69.0662 137.661 68.9233C137.975 68.8661 138.261 68.766 138.576 68.6802C138.89 68.5945 139.205 68.523 139.534 68.4658C140.177 68.3657 140.835 68.3657 141.478 68.4372C141.792 68.4658 142.121 68.5087 142.436 68.5373C142.75 68.5802 143.079 68.6087 143.394 68.6516L143.379 68.7231Z" fill="#FA996E"/>
<path d="M116.919 70.5518C117.048 70.7805 117.234 70.9807 117.419 71.1522C117.605 71.3381 117.82 71.4953 118.02 71.6526C118.449 71.9671 118.906 72.2245 119.378 72.4532C119.85 72.6819 120.35 72.8821 120.836 73.0536C121.337 73.2252 121.837 73.3967 122.352 73.5397C123.381 73.8256 124.439 73.9829 125.497 74.0544C126.555 74.1258 127.627 74.1544 128.685 74.1544H128.699H128.713C129.285 74.2545 129.871 74.3546 130.443 74.4404C131.015 74.5404 131.601 74.6262 132.173 74.712C132.759 74.7978 133.331 74.8835 133.917 74.955C134.503 75.0265 135.075 75.0837 135.661 75.1266V75.1552C135.075 75.1838 134.489 75.1695 133.903 75.1409C133.317 75.1123 132.731 75.0551 132.145 74.9836C131.558 74.9121 130.972 74.8407 130.4 74.7406C129.814 74.6548 129.242 74.5404 128.671 74.4261H128.699C127.627 74.3975 126.555 74.326 125.497 74.183C124.439 74.0401 123.381 73.8828 122.337 73.6684C121.294 73.4539 120.25 73.168 119.278 72.6676C118.792 72.4246 118.334 72.1387 117.92 71.7956C117.72 71.624 117.52 71.4382 117.334 71.2237C117.162 71.0236 116.991 70.7948 116.891 70.5518H116.919Z" fill="#FA996E"/>
<path d="M150.456 82.6075C149.312 81.8927 148.169 81.2065 147.025 80.506C146.453 80.1486 145.881 79.8055 145.295 79.491C144.695 79.1764 144.094 78.9048 143.451 78.6904C142.822 78.4759 142.178 78.3044 141.521 78.1614C141.192 78.0899 140.863 78.0327 140.534 77.9898C140.191 77.9327 139.862 77.8612 139.534 77.7754C138.876 77.5753 138.247 77.3179 137.661 76.9605C137.075 76.6031 136.56 76.1456 136.131 75.6167L136.145 75.6024C137.118 76.5316 138.333 77.1321 139.605 77.4895C139.92 77.5753 140.248 77.6467 140.577 77.7039C140.906 77.7611 141.249 77.8326 141.564 77.9184C142.221 78.0756 142.865 78.2901 143.494 78.5617C143.808 78.6904 144.108 78.8333 144.409 78.9906L145.309 79.4338L146.224 79.8769C146.525 80.0342 146.825 80.1772 147.125 80.3344C147.711 80.6489 148.283 81.0206 148.841 81.3923C149.398 81.7783 149.941 82.1786 150.456 82.6075Z" fill="#FA996E"/>
<path d="M108.713 72.35C108.884 72.6931 109.142 73.0076 109.427 73.2792C109.713 73.5509 110.028 73.7796 110.357 73.9798C111.029 74.38 111.772 74.6231 112.544 74.7946C113.302 74.9519 114.088 75.052 114.874 75.0806C115.661 75.1092 116.461 75.0663 117.233 74.9519C117.805 74.9948 118.377 75.052 118.963 75.0806L120.693 75.1949C121.265 75.2378 121.851 75.2807 122.423 75.3236L124.153 75.4666H124.167H124.181C124.453 75.5237 124.724 75.5809 124.996 75.6381C125.268 75.6953 125.539 75.7382 125.825 75.7954C126.383 75.8954 126.926 75.9812 127.484 76.0527C128.041 76.1242 128.599 76.1957 129.156 76.2529C129.714 76.31 130.271 76.3386 130.829 76.3672V76.3958C130.271 76.4244 129.699 76.4387 129.142 76.4101C128.584 76.3958 128.013 76.3529 127.455 76.2957C126.897 76.2386 126.34 76.1671 125.782 76.0813C125.225 75.9955 124.667 75.8954 124.124 75.7668H124.138L122.408 75.5952C121.837 75.538 121.265 75.4809 120.693 75.4237L118.977 75.2235C118.405 75.152 117.834 75.0949 117.262 75.0377H117.276C116.49 75.1378 115.703 75.2092 114.903 75.2378C114.102 75.2664 113.302 75.2092 112.515 75.0377C112.129 74.9519 111.743 74.8375 111.357 74.6946C110.986 74.5373 110.614 74.3658 110.285 74.1513C109.942 73.9369 109.642 73.6652 109.356 73.3793C109.084 73.0791 108.856 72.7503 108.713 72.3643V72.35Z" fill="#FA996E"/>
<path d="M107.438 75.9033L110.612 75.8747C111.141 75.8604 111.67 75.8604 112.199 75.8604C112.728 75.8604 113.257 75.8747 113.786 75.8604C114.486 75.9319 115.187 75.9748 115.887 75.9891C116.588 76.0033 117.288 76.0033 117.989 76.0176C118.689 76.0176 119.39 76.0319 120.09 76.0176H122.192H122.206C122.749 76.0891 123.293 76.1606 123.836 76.2607C124.379 76.3465 124.923 76.4322 125.466 76.5323V76.5609C124.908 76.5323 124.365 76.4894 123.822 76.4465C123.278 76.4036 122.721 76.3464 122.178 76.3036H122.192C121.491 76.3322 120.791 76.3465 120.09 76.3322C119.39 76.3179 118.689 76.3036 117.989 76.2607C117.288 76.2321 116.588 76.1749 115.887 76.1177C115.187 76.0605 114.486 76.0176 113.786 75.9747H113.8C113.271 76.0176 112.742 76.0605 112.213 76.0891C111.684 76.1177 111.155 76.132 110.626 76.132C110.097 76.132 109.568 76.1177 109.039 76.0891C108.51 76.0605 107.982 76.0176 107.453 75.9462L107.438 75.9033Z" fill="#FA996E"/>
<path d="M162.166 86.0391C162.352 85.7531 162.509 85.4672 162.638 85.167C162.766 84.8668 162.866 84.5522 162.938 84.2377C162.952 84.152 162.967 84.0805 162.981 83.9947L163.009 83.8803C163.009 83.8374 163.024 83.7945 163.024 83.766C163.038 83.6802 163.052 83.6087 163.052 83.5229C163.052 83.4371 163.067 83.3657 163.067 83.2799L163.081 83.1512V83.0226L163.095 82.7795C163.095 82.608 163.081 82.4507 163.095 82.2792C163.152 82.4364 163.195 82.608 163.238 82.7652C163.267 82.9368 163.295 83.1083 163.295 83.2799C163.324 83.623 163.281 83.9661 163.21 84.3092C163.124 84.6523 163.009 84.9811 162.838 85.2814C162.666 85.5673 162.438 85.8532 162.166 86.0391Z" fill="#FA996E"/>
<path d="M192.043 130.283C192.401 131.141 192.758 131.984 193.158 132.814C193.544 133.657 193.959 134.486 194.388 135.301C195.246 136.931 196.146 138.546 197.147 140.09C198.134 141.649 199.206 143.15 200.378 144.579C201.536 146.009 202.808 147.353 204.195 148.582C203.838 148.282 203.466 148.01 203.137 147.696C202.966 147.539 202.794 147.396 202.623 147.238L202.122 146.767C201.465 146.109 200.821 145.437 200.221 144.737C199.606 144.036 199.048 143.307 198.491 142.549C197.948 141.806 197.419 141.034 196.918 140.262C196.418 139.476 195.946 138.689 195.489 137.874C195.031 137.06 194.602 136.245 194.188 135.415C193.787 134.586 193.401 133.743 193.03 132.885C192.844 132.456 192.672 132.027 192.515 131.598C192.344 131.155 192.186 130.712 192.043 130.283Z" fill="#FA996E"/>
<path d="M46.4345 63.2234C54.6406 55.4034 67.6358 55.7179 75.4558 63.9239C81.3459 70.0999 82.6182 78.9921 79.3873 86.3404L85.6633 93.2026L74.7553 92.9309C66.5493 100.751 53.554 100.436 45.734 92.2304C37.914 84.0244 38.2285 71.0434 46.4345 63.2234Z" fill="white"/>
<path d="M85.6664 93.2225C85.166 92.622 84.6656 92.0359 84.151 91.464C83.6363 90.8779 83.1216 90.306 82.5927 89.7342C82.0637 89.1623 81.549 88.5905 81.0058 88.0329C80.4768 87.4754 79.9336 86.9178 79.3903 86.3603C79.8907 86.9607 80.391 87.5469 80.9057 88.1187C81.4204 88.7049 81.935 89.2767 82.464 89.8486C82.993 90.4204 83.5076 90.9922 84.0509 91.5498C84.5655 92.1074 85.1088 92.6649 85.6664 93.2225Z" fill="#1B1A2E"/>
<path d="M74.7424 92.954C75.6573 93.0111 76.558 93.054 77.4729 93.0969C78.3879 93.1398 79.2886 93.1541 80.2035 93.1827C81.1185 93.197 82.0191 93.2256 82.9341 93.2256C83.8491 93.2399 84.7497 93.2399 85.6647 93.2256C84.7497 93.1684 83.8491 93.1255 82.9341 93.0826C82.0191 93.0397 81.1185 93.0254 80.2035 92.9969C79.2886 92.9826 78.3879 92.954 77.4729 92.954C76.5723 92.9397 75.6573 92.9397 74.7424 92.954Z" fill="#1B1A2E"/>
<path d="M79.3896 86.3458C79.89 85.1878 80.3046 84.0012 80.5905 82.7718C80.8764 81.5423 81.0623 80.2985 81.1195 79.0261C81.2481 76.51 80.905 73.9653 80.1187 71.5635C79.3324 69.1618 78.0887 66.9173 76.4875 64.9587C74.872 63.0144 72.9277 61.3417 70.7118 60.098C69.611 59.4689 68.453 58.9543 67.2521 58.5397C66.0513 58.1251 64.8218 57.8392 63.5637 57.6533C61.0619 57.2816 58.4886 57.3817 56.0153 57.9392C53.5421 58.4825 51.1689 59.5118 49.0674 60.9271C48.0094 61.6277 47.023 62.4425 46.1223 63.3289C45.2217 64.2153 44.3782 65.1731 43.6634 66.2167C42.2052 68.2897 41.1473 70.6343 40.5325 73.0932C39.9178 75.5522 39.7748 78.1255 40.0893 80.6416C40.3896 83.1577 41.1902 85.6167 42.391 87.8469C43.5919 90.0771 45.2074 92.0786 47.1231 93.7369C49.0388 95.381 51.269 96.6677 53.6565 97.5111C56.0439 98.3546 58.5743 98.7549 61.1048 98.6834C63.6352 98.612 66.137 98.0687 68.4673 97.0823C70.7976 96.1101 72.9277 94.6948 74.7434 92.9506C72.9134 94.6805 70.769 96.0672 68.4387 97.0108C66.1085 97.9686 63.6066 98.4833 61.1048 98.5262C58.5886 98.5834 56.0725 98.1688 53.7136 97.3253C51.3548 96.4818 49.1531 95.1952 47.266 93.5511C46.3225 92.7362 45.4504 91.8213 44.6641 90.8491C43.8778 89.877 43.1916 88.819 42.5912 87.7182C41.4046 85.5166 40.6326 83.0863 40.3324 80.5987C40.0322 78.1112 40.1894 75.5808 40.7899 73.1504C41.3903 70.72 42.4482 68.4041 43.8921 66.3597C44.607 65.3304 45.4218 64.3868 46.3225 63.5005C47.2232 62.6284 48.1953 61.8278 49.2246 61.1273C51.2976 59.7263 53.6279 58.7112 56.0725 58.168C58.5172 57.6104 61.0619 57.5246 63.5351 57.882C66.0084 58.2395 68.4244 59.0543 70.6118 60.2695C72.7991 61.4847 74.7434 63.1431 76.3588 65.0587C77.96 66.9887 79.2038 69.2189 80.0044 71.5921C80.805 73.9653 81.1624 76.4957 81.0623 79.0118C81.0051 80.2699 80.8335 81.5137 80.5619 82.7432C80.276 84.0012 79.89 85.1878 79.3896 86.3458Z" fill="#1B1A2E"/>
<path d="M70.7095 85.7138L67.0354 82.0397C66.8209 81.8253 66.535 81.7252 66.2634 81.7395L63.5757 79.0518C65.6058 76.55 65.4485 72.8472 63.1182 70.517C61.9173 69.3161 60.3019 68.6441 58.6006 68.6441C56.8994 68.6441 55.2839 69.3018 54.083 70.517C52.8821 71.7178 52.2102 73.3333 52.2102 75.0346C52.2102 76.7358 52.8678 78.3513 54.083 79.5522C55.2839 80.753 56.8994 81.425 58.6006 81.425C60.0731 81.425 61.4742 80.9246 62.6179 80.0096L65.3055 82.6973C65.2912 82.969 65.3913 83.2549 65.6058 83.4693L69.2799 87.1434C69.48 87.3436 69.7374 87.4437 69.9947 87.4437C70.252 87.4437 70.5094 87.3436 70.7095 87.1434C71.0955 86.7574 71.0955 86.1141 70.7095 85.7138ZM55.0552 78.6229C54.0973 77.6651 53.5826 76.407 53.5826 75.0631C53.5826 73.7193 54.1116 72.4469 55.0552 71.5034C56.013 70.5455 57.2711 70.0309 58.6149 70.0309C59.9588 70.0309 61.2311 70.5598 62.1747 71.5034C64.1332 73.462 64.1332 76.6643 62.1747 78.6229C61.2168 79.5808 59.9588 80.0954 58.6149 80.0954C57.2711 80.0954 55.9987 79.5665 55.0552 78.6229Z" fill="#1F4068"/>
</svg>
